<?xml version="1.0" encoding="UTF-8"?>
<svg id="Calque_1" xmlns="http://www.w3.org/2000/svg" xmlns:xlink="http://www.w3.org/1999/xlink" version="1.1" viewBox="0 0 1359.06 941.08">
  <!-- Generator: Adobe Illustrator 30.2.1, SVG Export Plug-In . SVG Version: 2.1.1 Build 1)  -->
  <defs>
    <style>
      .st0 {
        fill: #ffebcb;
        filter: url(#drop-shadow-1);
      }

      .st1 {
        fill: #bb3858;
      }
    </style>
    <filter id="drop-shadow-1" x="74.41" y="54.74" width="1225" height="846" filterUnits="userSpaceOnUse">
      <feOffset dx="7" dy="7"/>
      <feGaussianBlur result="blur" stdDeviation="5"/>
      <feFlood flood-color="#000" flood-opacity=".75"/>
      <feComposite in2="blur" operator="in"/>
      <feComposite in="SourceGraphic"/>
    </filter>
  </defs>
  <path class="st0" d="M1263.17,64.44c-2.2-.79-4.49-1.18-6.81-1.18-7.2,0-13.92,3.92-17.5,10.09-1.46,1.41-8.43,7.3-28.89,13.87-35.74,11.48-90.51,18.65-162.78,21.31-191.11,7.03-234.9,34.67-241.74,40.14-7.43,5.95-9.85,16.34-5.74,24.72,3.44,7.01,10.32,11.36,17.97,11.36,1.1,0,2.21-.09,3.3-.28.51,1.5,1.11,4.78.75,10.36-.42,6.55-8.77,14.72-22.89,22.41-8.35,4.54-17.29,8.18-24.67,10.77-2.22-.78-5.09-2.24-7.31-5.03-3.95-4.96-4.45-12.38-1.56-19.51.32-.62.61-1.26.86-1.91.22-.44.45-.88.69-1.32-.08.01-.16.02-.24.03,1.28-4.08,1.26-8.55-.22-12.75-.81-2.29-5.41-14.18-16.57-22.84-1.39-1.08-2.89-2.05-4.57-2.95-1.97-1.06-2.94-1.54-3.95-1.94-5.01-2.02-10.67-3.05-16.82-3.05-5.24-2.8-11.74-4.42-19.39-4.83-1.32-.07-2.71-.11-4.13-.11-11.89,0-27.34,2.51-45.92,7.47-17.32,4.62-29.96,8.08-37.57,10.31-3.26.95-5.64,1.69-7.27,2.25-12.93,4.45-16.68,15.39-14.66,24.26,1.21,5.34,6.17,14.23,17.16,15.56,1.32.87,1.35,1.86,1.23,3.1-.43,4.54-3.39,13.78-6.59,23.36-2.65-3.03-6.19-5.28-10.24-6.31-7.1-1.8-22.87-6.9-36.95-14.56-14.13-7.69-22.47-15.86-22.9-22.41-.36-5.58.25-8.86.75-10.36,1.1.18,2.2.28,3.31.28,7.65,0,14.54-4.35,17.97-11.36,4.11-8.38,1.69-18.78-5.74-24.72-6.84-5.47-50.62-33.11-241.74-40.14-72.27-2.66-127.04-9.83-162.78-21.31-20.46-6.57-27.43-12.46-28.89-13.87-3.58-6.17-10.3-10.09-17.5-10.09-2.32,0-4.61.4-6.81,1.19-10.34,3.7-15.86,15.17-12.31,25.56,3.33,9.75,27.35,57.29,180.77,75.45-32.89,6.68-50.45,9.3-73.33,9.3-3.68,0-7.5-.07-11.64-.21-.24,0-.47-.01-.71-.01-9.83,0-18.2,7.03-19.9,16.72-1.73,9.86,4.14,19.62,13.66,22.72,12.83,4.17,45.18,11.22,85.09,11.22h.33c-5.24,1.92-10.51,3.94-15.83,6.06-1.35.51-2.26.9-2.68,1.09-9.9,4.54-14.45,16.37-10.14,26.37,3.2,7.42,10.48,12.22,18.56,12.22,2.6,0,5.15-.5,7.53-1.46l1.14-.45c2.26-.81,12.05-3.91,29.09-3.91,13,0,27.2,1.78,42.19,5.29,17.47,4.09,35.45,7.14,52.96,9.01-6.94,7.6-11.68,15.6-14.14,23.92-2.42,8.18.59,17.05,7.49,22.07,3.48,2.53,7.59,3.87,11.89,3.87s8.04-1.22,11.4-3.51c.14-.1,14.39-9.61,33.71-14.16,6.91-1.63,13.65-2.45,20.04-2.45,1.86,0,3.7.07,5.52.21-1.78,1.19-3.54,2.42-5.26,3.69-7.83,5.77-10.46,16.3-6.26,25.04,3.35,6.96,10.49,11.46,18.19,11.46,1.71,0,3.42-.22,5.08-.65.46-.1,4.74-1.03,11.33-1.03s12.9.85,19.25,2.51c24.41,6.41,45.48,24.07,62.62,52.49.55.92,1.19,1.78,1.87,2.59h-3.22c-2.24,0-4.42.36-6.5,1.07-1.97-.63-4.04-.95-6.14-.95h-58.4c-2.02,0-4.01.3-5.91.88-1.9-.58-3.89-.88-5.91-.88h-16.85c-9.01,0-16.66,5.92-19.26,14.08l-7.66-8.92c-3.84-4.47-9.43-7.04-15.33-7.04h-4.45c-4.03,0-7.85,1.18-11.08,3.29-2.42-1-5.05-1.54-7.76-1.54h-16.74c-1.68,0-3.36.21-4.99.63-1.76-.49-3.59-.74-5.43-.74h-16.85c-8.69,0-16.32,5.57-19.1,13.59-2.78-7.84-10.27-13.48-19.06-13.48h-16.74c-11.14,0-20.21,9.07-20.21,20.21v83.68c0,11.14,9.07,20.21,20.21,20.21h43.31c9.21,0,17-6.2,19.43-14.64,2.42,8.44,10.22,14.64,19.43,14.64h16.74c3.35,0,6.57-.82,9.42-2.32,2.86,1.5,6.07,2.32,9.42,2.32h16.74c8.97,0,16.6-5.88,19.23-13.99l8.08,9.02c3.83,4.27,9.32,6.73,15.05,6.73h4.45c7.1,0,13.36-3.68,16.97-9.24,3.71,4.56,9.36,7.48,15.69,7.48h16.74c6.95,0,13.1-3.53,16.74-8.89,3.64,5.36,9.78,8.89,16.74,8.89h1.26c-1.08,2.97-1.48,6.23-1.04,9.57.06.54,1.03,9.8-.91,23.8-1.9,13.72-7.03,34.92-20.7,57.99-5.13,8.65-3.05,19.89,4.83,26.14,3.56,2.82,8.02,4.38,12.56,4.38,5.24,0,10.21-2,13.99-5.62,4.32-4.14,17.36-16.89,30.46-32.17-3.93,18.4-5.23,35.21-5.26,49.21-.09,38.02,8.82,64.31,9.19,65.4,2.81,8.16,10.49,13.63,19.11,13.63,1.25,0,2.5-.12,3.73-.35,3.02,13.5,6.35,21.63,7.69,24.57,21.58,57.08,63.17,84.45,94.29,97.36,33.44,13.87,62.22,14.32,63.43,14.33.03,0,.2,0,.2,0,9.31,0,17.37-6.31,19.61-15.34,2.26-9.12-1.99-18.51-10.34-22.82-12.34-6.38-28.34-21.9-34.45-59.6-3.92-24.17-1.8-45.61-1.78-45.79,1.08-10.08-5.54-19.46-15.39-21.81-1.55-.37-3.13-.56-4.72-.56-1.14,0-2.26.11-3.36.29,1.52-5.21,2.86-10.54,4.01-16,7.74-.87,14.37-6.13,16.89-13.65,6.65-19.8,8.18-40.79,4.69-62.13,10.93,12.19,20.87,21.9,24.53,25.41,3.78,3.63,8.75,5.62,13.99,5.62h0c4.54,0,9-1.55,12.56-4.38,7.88-6.25,9.95-17.48,4.83-26.14-13.67-23.06-18.8-44.26-20.7-57.98-1.95-14.08-.96-23.35-.91-23.81.43-3.33.02-6.59-1.06-9.56h23.99c2.47,0,4.91-.46,7.2-1.33,2.28.87,4.72,1.33,7.2,1.33h16.74c3.35,0,6.57-.82,9.42-2.32,2.86,1.5,6.07,2.32,9.42,2.32h43.31c2.73,0,5.39-.54,7.84-1.57,2.45,1.03,5.11,1.57,7.84,1.57h16.74c4.69,0,9.02-1.61,12.45-4.3,3.49,2.74,7.86,4.3,12.48,4.3h18.96c1.88,0,3.75-.27,5.56-.78,1.8.51,3.67.78,5.56.78h43.31c4.25,0,8.28-1.31,11.63-3.67,10.52,3.81,19.5,4.45,24.33,4.45,1.24,0,2.44-.04,3.58-.12,12.42-.7,23.66-5.58,31.67-13.77,8.1-8.28,12.55-19.57,12.55-31.8,0-10.99-3.97-20.75-11.58-28.73,1.7-2.55,2.82-5.48,3.22-8.56l2.11-16.15c1.23-9.45-4.4-18.57-13.4-21.7-9.25-3.22-17.09-4.72-24.68-4.72-1.61,0-2.97.06-3.81.11-8.19.41-15.79,2.82-22.28,6.95-3.69-3.93-8.93-6.39-14.73-6.39h-41.9c-5.86,0-11.14,2.51-14.84,6.5-6.93-4.24-15.1-6.5-23.91-6.5h-33.01c-2.99,0-5.9.66-8.54,1.89-1.29-.6-2.65-1.07-4.05-1.39l-3.11-7.3c-3.18-7.46-10.48-12.29-18.59-12.29h-20.6c-7.81,0-15,4.57-18.31,11.65-1.14,2.43-1.75,5.02-1.87,7.62-.91-.12-1.83-.19-2.76-.19h-16.74c-10.02,0-18.35,7.33-19.94,16.9h-1.09c-1.58-9.57-9.92-16.9-19.93-16.9h-3.14c.68-.81,1.32-1.67,1.87-2.59,17.14-28.42,38.2-46.08,62.62-52.49,6.36-1.67,12.84-2.52,19.26-2.52s10.7.89,11.28,1.02c1.65.43,3.35.64,5.06.64,7.72,0,14.87-4.49,18.21-11.45,4.21-8.75,1.59-19.27-6.23-25.03-1.72-1.27-3.47-2.5-5.26-3.69,1.82-.14,3.67-.21,5.53-.21,6.39,0,13.13.82,20.03,2.45,19.31,4.55,33.55,14.05,33.63,14.1,3.39,2.34,7.36,3.58,11.49,3.58s8.39-1.33,11.86-3.85c6.93-5.02,9.95-13.9,7.52-22.11-2.46-8.31-7.2-16.31-14.14-23.92,17.51-1.87,35.5-4.93,52.96-9.01,15-3.51,29.19-5.29,42.19-5.29,17.03,0,26.83,3.1,29.08,3.91l1.1.44c2.42.98,4.97,1.48,7.57,1.48,8.08,0,15.37-4.79,18.56-12.22,4.31-10-.24-21.83-10.15-26.37-.42-.19-1.32-.58-2.66-1.09-5.32-2.13-10.61-4.15-15.85-6.07h.34c39.9,0,72.26-7.05,85.08-11.22,9.52-3.09,15.39-12.86,13.66-22.72-1.7-9.69-10.04-16.72-19.83-16.72-.27,0-.54,0-.75.01-4.18.14-8.01.21-11.69.21-22.87,0-40.43-2.62-73.31-9.3,153.42-18.17,177.44-65.71,180.77-75.46,3.55-10.39-1.98-21.85-12.32-25.56ZM500.66,238.15c-.04-.24-.09-.48-.14-.71.18.2.37.38.55.58-.14.04-.27.09-.41.13ZM703.54,405.47c.04-.22.07-.44.11-.66.03.22.07.44.12.66h-.22ZM858.4,238.15c-.14-.05-.28-.09-.43-.14.19-.21.39-.42.58-.63-.05.26-.11.51-.15.77Z"/>
  <g>
    <path class="st1" d="M745.94,732.11c-18.53,49-4.31,89.06-4.31,89.06-99.35-41.45-99.59-151.07-99.59-151.07-2.36,60.37,11.67,88.18,11.67,88.18,36.67,98.33,139.27,99.33,139.27,99.33-57.43-29.68-47.05-125.51-47.05-125.51"/>
    <path class="st1" d="M782.41,536.55c-7.95,12.28-12.73,41.6-12.73,41.6-8.82-5.36-19.06-18.01-19.06-18.01,7.96,24.99,56.05,71.11,56.05,71.11-30.22-50.99-24.26-94.69-24.26-94.69"/>
    <path class="st1" d="M593.16,578.14s-4.78-29.31-12.73-41.6c0,0,5.95,43.7-24.26,94.69,0,0,48.09-46.12,56.05-71.11,0,0-10.24,12.65-19.06,18.01"/>
    <path class="st1" d="M646.83,605.35c6.82,111.42,54.68,148.18,54.68,148.18,44.2-65.65,26.47-148.18,26.47-148.18,25.21,22.71,16.33,70.75,16.33,70.75,23.02-68.54-33.72-129.07-33.72-129.07,23.75,131.96-14.46,163.79-14.46,163.79-58.46-57.19-39.14-174.49-39.14-174.49-66.02,90.39-33.33,185.35-33.33,185.35-11.73-64.43,23.17-116.34,23.17-116.34"/>
    <path class="st1" d="M398.56,198.41s.06,0,.08,0c-.01,0-.03,0-.04,0h-.04Z"/>
    <path class="st1" d="M398.65,198.42s.03,0,.03,0c0,0-.02,0-.03,0"/>
    <path class="st1" d="M739.51,401.62c25.08-63.73,6.8-95.01,6.8-95.01,9.39,43.83-6.66,74.39-22.72,95.01h15.92Z"/>
    <path class="st1" d="M464.75,178.75s-30.96-1.19-52.4,3.57c0,0,98.3,3.52,120.29,70.62,0,0-19.2,1.22-29.92,5.98,0,0,47.82-7.31,77.55,60.35,0,0-11.91-55.98,11.91-67.89,0,0-72.66-18.34-75.04-55.25-2.38-36.92,23.83-31.69,23.83-31.69,0,0-35.73-28.58-229.85-35.73-194.12-7.15-208.42-45.26-208.42-45.26,0,0,16.67,48.83,186.98,64.31,170.31,15.48,175.07,30.96,175.07,30.96"/>
    <path class="st1" d="M446.59,276.55s23.28-10.57,34.15-35.08c0,0-57.43,18.11-101.99-2.66,0,0,39.3-7.15,66.69-2.38,0,0-34.54-38.11-116.71-46.45,0,0,22.03-11.03,74.09-8.46,0,0-65.75-10.6-116.96.12-51.21,10.72-71.46,14.29-107.19,13.1,0,0,47.64,15.48,114.33,8.34,66.69-7.15,102.92,17.73,102.92,17.73-10.99-.89-60.19-5.31-146.72,29.32,6.46-2.39,34.42-10.81,83.1.58,53.28,12.47,103.4,13.09,124.55,6.78-12.77,4.48-62.66,23.59-70.95,51.58,0,0,65.5-45.26,121.48,0,0,0-21.44,3.57-44.06,20.25,0,0,66.69-17.86,115.52,63.12,0,0-12.76-123.41-132.24-115.89"/>
    <path class="st1" d="M249.19,250.14c-.97.36-1.46.58-1.46.58.49-.2.97-.39,1.46-.58"/>
    <path class="st1" d="M1047.94,128.73c-194.12,7.15-229.85,35.73-229.85,35.73,0,0,26.22-5.24,23.83,31.68-2.38,36.92-75.04,55.26-75.04,55.26,23.82,11.91,11.91,67.88,11.91,67.88,29.74-67.66,77.55-60.35,77.55-60.35-10.72-4.76-29.92-5.98-29.92-5.98,21.99-67.1,120.29-70.62,120.29-70.62-21.44-4.76-52.4-3.57-52.4-3.57,0,0,4.76-15.48,175.07-30.96,170.31-15.48,186.98-64.31,186.98-64.31,0,0-14.29,38.11-208.42,45.26"/>
    <path class="st1" d="M1066.07,203.08c66.69,7.15,114.33-8.34,114.33-8.34-35.73,1.19-55.98-2.38-107.19-13.1-51.21-10.72-116.96-.12-116.96-.12,52.06-2.58,74.09,8.46,74.09,8.46-82.18,8.34-116.71,46.45-116.71,46.45,27.39-4.76,66.69,2.38,66.69,2.38-44.56,20.77-101.99,2.66-101.99,2.66,10.87,24.51,34.15,35.08,34.15,35.08-119.48-7.51-132.24,115.89-132.24,115.89,48.83-80.99,115.52-63.12,115.52-63.12-22.63-16.67-44.06-20.25-44.06-20.25,55.97-45.26,121.48,0,121.48,0-8.29-28-58.18-47.1-70.95-51.58,21.15,6.32,71.26,5.69,124.55-6.78,48.68-11.39,76.64-2.97,83.1-.58-86.53-34.63-135.74-30.21-146.72-29.32,0,0,36.23-24.88,102.92-17.73"/>
    <path class="st1" d="M1109.87,250.14c.49.19.97.38,1.46.58,0,0-.49-.22-1.46-.58"/>
    <path class="st1" d="M609.25,320.85c.76,37.24,11.08,68.08,13.25,73.72,0,0-13.27-110.93,31.25-147.77,0,0-18.58-45.44,9.03-58.38,25.54-11.97,40.4-11.08,52.01-6.42l2.92,1.31,2.66-1.11h0c4.55-1.43,14.25-2.79,21,8.16,0,0-1.66-1.74-7.32,10.34-3.89,8.31-9.19,8.51-9.19,8.51,0,0,6.34,2.42,14.86-12.41,0,0,2.85-4.61,7.62-2.57,0,0-2.86-8.13-9.92-13.6-.55-.43-1.15-.8-1.77-1.13-.72-.39-1.64-.88-1.86-.96-2.26-.92-7.11-2.36-15.62-1.1-2.83-4.78-15.54-9.93-57.9,1.36-57.43,15.31-43.51,12.68-43.51,12.68,0,0,19.24,5.26,17.32,25.19-1.9,19.93-25.6,66.95-24.85,104.17"/>
    <path class="st1" d="M638.25,323.51c-9.26,42.26,3.51,78.11,3.51,78.11h41.95c-62.22-67.77-16.4-141.6-16.4-141.6-3.36,5.4-19.8,21.23-29.06,63.49"/>
    <path class="st1" d="M395.49,195s.03,0,.03,0c0,0-.02,0-.03,0"/>
    <path class="st1" d="M395.41,195s.06,0,.08,0c-.01,0-.03,0-.04,0h-.04Z"/>
    <path class="st1" d="M1061.21,503.98c11.35,5.85,21.77,6.44,26.45,6.09,15.68-.82,25.28-11.47,25.28-25.4s-11.24-20.83-24.23-25.63c-4.8-1.64-8.9-3.75-9.36-8.43-.35-4.68,2.34-9.01,8.31-9.36,2.57-.12,7.84-.23,17.09,3.51l2.11-16.15c-10.77-3.75-16.5-3.75-20.83-3.51-13.93.7-23.64,11.47-23.64,25.51s11.7,20.72,24.81,25.51c4.68,1.64,8.31,3.75,8.66,8.54.47,4.56-3.75,8.08-8.66,8.43-3.86.35-14.28.12-23.88-6.67l-2.11,17.56ZM1049.39,509.36h0v-16.74h-26.57v-16.74h22v-16.74h-22v-16.74h25.16v-16.74h-41.9v83.68h43.31ZM951.08,442.42h14.75c11.35,0,11.35,18.73,0,18.73h-14.75v-18.73ZM994.97,509.36h0l-19.43-34.53c24.58-7.14,21.65-49.16-8.19-49.16h-33.01v83.68h16.74v-31.95h8.08l16.85,31.95h18.96ZM879.45,406.6l11.24,13.46h15.1l-5.74-13.46h-20.6ZM918.66,509.36h0v-16.74h-26.57v-16.74h22v-16.74h-22v-16.74h25.16v-16.74h-41.9v83.68h43.31ZM856.51,425.68h-16.74v83.68h16.74v-83.68ZM782.08,425.68h0v83.68h43.31v-16.74h-26.57v-66.95h-16.74ZM763.23,425.68h-16.74v83.68h16.74v-83.68ZM732.69,442.42h0v-16.74h-41.78v83.68h16.74v-33.47h21.3v-16.74h-21.3v-16.74h25.05ZM635.9,442.42h14.75c11.35,0,11.35,18.73,0,18.73h-14.75v-18.73ZM679.79,509.36h0l-19.43-34.53c24.58-7.14,21.65-49.16-8.19-49.16h-33.01v83.68h16.74v-31.95h8.08l16.85,31.95h18.96ZM603.48,509.36h0v-16.74h-26.57v-16.74h22v-16.74h-22v-16.74h25.16v-16.74h-41.9v83.68h43.31ZM526.7,509.36v-66.95h20.83v-16.62h-58.4v16.62h20.83v66.95h16.74ZM430.49,463.83h0l42.37,47.28h4.45v-85.32h-16.85v47.28l-42.25-49.16h-4.45v85.44h16.74v-45.53ZM394.91,425.68h-16.74v83.68h16.74v-83.68ZM350.9,425.56l-4.8,24.93h12.76l8.9-24.93h-16.85ZM296.01,425.68h0v83.68h43.31v-16.74h-26.57v-66.95h-16.74Z"/>
  </g>
</svg>