<?xml version="1.0" encoding="UTF-8"?>
<svg id="Calque_1" data-name="Calque 1" xmlns="http://www.w3.org/2000/svg" viewBox="0 0 1791.16 1012.25">
  <defs>
    <style>
      .cls-1 {
        fill: none;
      }

      .cls-2 {
        fill: #fff;
      }

      .cls-3 {
        fill: #e7d2ff;
      }
    </style>
  </defs>
  <path class="cls-3" d="M213.53,728.4c54.52,96.57,179.6,13.32,179.6,13.32,0,0,83.39,96.57,198.84,53.28,115.46-43.29,154.42-124.11,154.42-124.11,0,0,12.35,84.15,121.39,84.15,0,0,60.94,106.56,192.43,49.95,0,0,15.23,60.77,111.83,40.39,96.63-20.41,122.29-113.65,122.29-113.65,0,0,57.73,106.56,157.15,113.22,94.42,6.33,154.14-59.44,143.39-140.23-29.67,29.34-78.16,58.41-120.94-2.96,0,0-44.9,56.61-96.21,23.31-50.51-32.77-26.43-81.68-25.69-83.22-1.76.67-64.5,25.01-77.04-37.03,0,0-22.35,30.34-60.84,20.35,0,0,19.24,63.27-35.28,96.57-54.52,33.3-93.01-6.66-93.01-6.66,0,0-24.6,29.04-66.84,22.84-42.21-6.19-42.21-26.17-42.21-26.17,0,0-40.6,23.84-81.24,10.26-40.63-13.59-47.05-70.2-47.05-70.2,0,0-109.04,9.99-131.49-86.58-22.45-96.57,121.17-118.38,121.17-118.38,0,0-73.06,5.16-111.54-38.13-38.49-43.29-11.99-76.69-11.99-76.69,0,0-44.45-15.12-70.01-57.78-5.55,9.62-9.17,19.11-11,27.91-9.62,46.62,12.83,86.58,12.83,86.58,0,0-51.31-19.98-51.31,39.96,0,0-67.35-23.31-67.35,56.61,105.84,36.63,38.49,99.9,38.49,99.9,0,0,99.42,53.28,15.94,110.82-83.48,57.54-114.08-25.14-114.08-25.14,0,0-36.56,37.53-75.05,20.88-38.49-16.65-38.49-69.93-38.49-69.93,0,0-73.76-16.65-44.9-83.25,16.1-37.13,52.21-48.32,81.04-50.95-14.69-5.03-32.94-6.83-55.39-2.33-83.39,16.65-93.01,133.2-93.01,133.2,0,0-83.39,13.32-28.86,109.89Z"/>
  <path class="cls-2" d="M714.68,332.03s-26.49,33.4,11.99,76.69c38.49,43.29,111.54,38.13,111.54,38.13,0,0-143.62,21.81-121.17,118.38,22.45,96.57,131.49,86.58,131.49,86.58,0,0,6.41,56.61,47.05,70.2,40.64,13.59,81.24-10.26,81.24-10.26,0,0,0,19.98,42.21,26.17,42.24,6.19,66.84-22.84,66.84-22.84,0,0,38.49,39.96,93.01,6.66,54.52-33.3,35.28-96.57,35.28-96.57,38.49,9.99,60.84-20.35,60.84-20.35,12.54,62.04,75.27,37.7,77.04,37.03-.74,1.53-24.82,50.45,25.69,83.22,51.31,33.3,96.21-23.31,96.21-23.31,42.78,61.37,91.28,32.3,120.94,2.96-.54-4.3-1.31-8.59-2.28-12.95-19.24-86.58-99.42-83.25-128.29-66.6,0,0,0-63.27-54.52-86.58-51.8-22.14-109.4,22.51-115.01,27.04,5.16-4.86,55.32-54.75,18.79-136.93-38.49-86.58-137.91-73.26-137.91-73.26,0,0,0-96.57-73.76-116.55-73.76-19.98-128.29,53.28-128.29,53.28,0,0-12.57-104.99-140.99-104.13-104.23.73-164.01,44.75-187.97,86.21,25.56,42.66,70.01,57.78,70.01,57.78ZM1008.9,458.67c57.73-13.32,70.56,43.29,70.56,43.29,0,0,51.31-29.97,80.18,36.63,28.48,65.7-31.37,107.16-33,108.26.39-1.43,10.33-35.96-.03-80.85-10.58-45.82-65.46-34.63-65.46-34.63,0,0-10.55-36.06-44.87-42.52-34.35-6.46-61.22,29.97-61.22,29.97,0,0-3.88-46.82,53.85-60.14ZM910.54,365.43c74.82-56.61,120.81,0,120.81,0-35.28-3.33-51.31-9.99-102.63,19.98-51.31,29.97-33.13,99.9-33.13,99.9,0,0-59.88-63.27,14.95-119.88Z"/>
  <path class="cls-2" d="M354.64,621.84s0,53.28,38.49,69.93c38.49,16.65,75.05-20.88,75.05-20.88,0,0,30.6,82.68,114.08,25.14,83.48-57.54-15.94-110.82-15.94-110.82,0,0,67.35-63.27-38.49-99.9,0,0-83.39-13.32-83.39,53.28,0,0-13.69-37.33-53.62-50.95h-.03c-28.83,2.63-64.94,13.82-81.04,50.95-28.86,66.6,44.9,83.25,44.9,83.25Z"/>
  <path class="cls-1" d="M1352.03,641.85l.03-.03"/>
  <path class="cls-3" d="M955.05,518.81s26.88-36.43,61.22-29.97c34.32,6.46,44.87,42.52,44.87,42.52,0,0,54.87-11.19,65.46,34.63,10.36,44.89.42,79.42.03,80.85,1.64-1.1,61.48-42.56,33-108.26-28.86-66.6-80.18-36.63-80.18-36.63,0,0-12.83-56.61-70.56-43.29-57.73,13.32-53.85,60.14-53.85,60.14Z"/>
  <path class="cls-3" d="M895.59,485.31s-18.18-69.93,33.13-99.9c51.31-29.97,67.35-23.31,102.63-19.98,0,0-45.99-56.61-120.81,0-74.82,56.61-14.95,119.88-14.95,119.88Z"/>
</svg>