<?xml version="1.0" encoding="UTF-8"?>
<svg id="Calque_1" data-name="Calque 1" xmlns="http://www.w3.org/2000/svg" viewBox="0 0 1882.88 1012.25">
  <defs>
    <style>
      .cls-1 {
        fill: none;
      }

      .cls-2 {
        fill: #fff;
      }

      .cls-3 {
        fill: #e7d2ff;
      }
    </style>
  </defs>
  <path class="cls-2" d="M976.39,680.84c68.43,115.92,163.2,43.45,163.2,43.45,0,0,40,68.25,128.57,31.43,88.57-36.82,79.71-117.16,79.71-117.16,79.71,20.08,88.57-43.52,88.57-43.52,0,0,23.62,66.95,70.09,101.96,46.47,34.98,115.26-24.97,115.26-24.97,34.75,33.47,69.14,0,69.14,0,60.02,56.4,112.01,49.44,146.08,32.5.35-11.48-3.81-24.6-13.82-39.2-62-90.38-197.8-63.6-197.8-63.6-17.71-167.37-123.99-137.25-123.99-137.25-35.43-143.94-165.33-130.55-165.33-130.55-38.38-60.25-112.18-33.47-112.18-33.47-8.68-75.45-91.08-163.79-238.89-145.21l-.03.03c-27.25,32.97-57.6,85.33-68.11,161.92-20.67,150.64,85.17,188.93,85.17,188.93,0,0-94.03,58.78-25.63,174.7ZM1160.79,438.15c84.55-103.34,153.66,0,153.66,0,120.1,10.48,95.42,133.46,95.42,133.46-17.71-110.47-123.49-105.78-123.49-105.78-46.73-65.58-125.59-27.68-125.59-27.68ZM1091.03,551.53c53.14-66.95,112.18-16.74,112.18-16.74-62-36.82-103.89,36.82-103.89,36.82-53.67-13.39-70.29,56.91-70.29,56.91-5.9-90.38,62-76.99,62-76.99Z"/>
  <path class="cls-3" d="M62.14,728.78c42.78,33.27,102.44,0,102.44,0,0,0,52.58,47.03,214.95,87.2,162.37,40.17,265.7-66.95,265.7-66.95,79.71,23.43,123.99-3.35,123.99-3.35,100.38,90.38,200.75,30.13,200.75,30.13,0,0,64.95,83.69,236.18,83.69s259.38-100.16,259.38-100.16c123.58,80.64,189.36-30.4,189.36-30.4,56.92,50.51,180.29,35.15,182.09-24.4-34.07,16.94-86.06,23.9-146.08-32.5,0,0-34.39,33.47-69.14,0,0,0-68.79,59.95-115.26,24.97-46.47-35.01-70.09-101.96-70.09-101.96,0,0-8.86,63.6-88.57,43.52,0,0,8.86,80.34-79.71,117.16-88.57,36.82-128.57-31.43-128.57-31.43,0,0-94.77,72.47-163.2-43.45-68.4-115.92,25.63-174.7,25.63-174.7,0,0-105.84-38.29-85.17-188.93,10.51-76.59,40.86-128.94,68.11-161.92-2.98.33-6.02.77-9.06,1.24-153.52,23.43-183.87,199.01-183.87,199.01,0,0-5.64,86.83,63.92,126.33-3.42-.54-101.88-15.8-125.09,73.01,0,0-60.73-41.51-151.39,17.74,0,0-119.57-241.82,124.97-240.32-36.61-5.96-80.15-8.23-121.19,1.64-97.42,23.43-132.85,133.9-132.85,133.9,0,0-47.24-23.43-76.76,16.74-29.52,40.17-35.43,83.69-35.43,83.69,0,0,63.27,20.08,28.7,85.36-34.6,65.28-112.69-22.63-112.69-22.63,0,0-87.24,84.56-116.76-12.52-70.85-13.39-118.09,76.99-75.31,110.3ZM687.01,628.52c12.25-80.34,76.32-36.82,76.32-36.82,109.23-30.13,103.33,90.38,103.33,90.38-44.28-97.08-100.26-51.08-100.26-51.08-47.12-57.78-79.39-2.48-79.39-2.48ZM474.01,611.78c82.66-60.25,97.75,41.84,97.75,41.84-46.88-58.58-78.77,0-78.77,0-69.58-35.15-62.09,56.14-62.09,56.14-54.88-112.91,43.1-97.98,43.1-97.98Z"/>
  <path class="cls-2" d="M579.46,572.62c90.66-59.25,151.39-17.74,151.39-17.74,23.2-88.81,121.66-73.54,125.09-73.01-69.55-39.5-63.92-126.33-63.92-126.33,0,0-37.29-15.06-87.59-23.23-244.53-1.51-124.97,240.32-124.97,240.32Z"/>
  <path class="cls-2" d="M137.45,618.48c29.52,97.08,116.76,12.52,116.76,12.52,0,0,78.09,87.9,112.69,22.63,34.57-65.28-28.7-85.36-28.7-85.36,0,0-38.38-30.13-115.14-20.08-76.76,10.04-85.61,70.3-85.61,70.3Z"/>
  <path class="cls-3" d="M1160.79,438.15s78.85-37.89,125.59,27.68c0,0,105.78-4.69,123.49,105.78,0,0,24.68-122.99-95.42-133.46,0,0-69.11-103.34-153.66,0Z"/>
  <path class="cls-3" d="M1029.03,628.52s16.62-70.3,70.29-56.91c0,0,41.89-73.64,103.89-36.82,0,0-59.04-50.21-112.18,16.74,0,0-67.9-13.39-62,76.99Z"/>
  <path class="cls-1" d="M855.94,481.87c.06.03.09.03.09.03"/>
  <path class="cls-2" d="M687.01,628.52s32.27-55.3,79.39,2.48c0,0,55.97-45.99,100.26,51.08,0,0,5.9-120.51-103.33-90.38,0,0-64.06-43.52-76.32,36.82Z"/>
  <path class="cls-2" d="M430.91,709.76s-7.5-91.29,62.09-56.14c0,0,31.88-58.58,78.77,0,0,0-15.09-102.1-97.75-41.84,0,0-97.98-14.93-43.1,97.98Z"/>
</svg>